<svg width="32" height="32" viewBox="0 0 32 32" fill="none" xmlns="http://www.w3.org/2000/svg">
<path d="M16 13.3335H16.0133" stroke="#13295F" stroke-width="2" stroke-linecap="round" stroke-linejoin="round"/>
<path d="M16 18.6665H16.0133" stroke="#13295F" stroke-width="2" stroke-linecap="round" stroke-linejoin="round"/>
<path d="M16 8H16.0133" stroke="#13295F" stroke-width="2" stroke-linecap="round" stroke-linejoin="round"/>
<path d="M21.3334 13.3335H21.3467" stroke="#13295F" stroke-width="2" stroke-linecap="round" stroke-linejoin="round"/>
<path d="M21.3334 18.6665H21.3467" stroke="#13295F" stroke-width="2" stroke-linecap="round" stroke-linejoin="round"/>
<path d="M21.3334 8H21.3467" stroke="#13295F" stroke-width="2" stroke-linecap="round" stroke-linejoin="round"/>
<path d="M10.6666 13.3335H10.68" stroke="#13295F" stroke-width="2" stroke-linecap="round" stroke-linejoin="round"/>
<path d="M10.6666 18.6665H10.68" stroke="#13295F" stroke-width="2" stroke-linecap="round" stroke-linejoin="round"/>
<path d="M10.6666 8H10.68" stroke="#13295F" stroke-width="2" stroke-linecap="round" stroke-linejoin="round"/>
<path d="M12 29.3333V25.3333C12 24.9797 12.1405 24.6406 12.3905 24.3905C12.6406 24.1405 12.9797 24 13.3333 24H18.6667C19.0203 24 19.3594 24.1405 19.6095 24.3905C19.8595 24.6406 20 24.9797 20 25.3333V29.3333" stroke="#13295F" stroke-width="2" stroke-linecap="round" stroke-linejoin="round"/>
<path d="M24 2.6665H8.00004C6.52728 2.6665 5.33337 3.86041 5.33337 5.33317V26.6665C5.33337 28.1393 6.52728 29.3332 8.00004 29.3332H24C25.4728 29.3332 26.6667 28.1393 26.6667 26.6665V5.33317C26.6667 3.86041 25.4728 2.6665 24 2.6665Z" stroke="#13295F" stroke-width="2" stroke-linecap="round" stroke-linejoin="round"/>
</svg>
