<svg width="32" height="32" viewBox="0 0 32 32" fill="none" xmlns="http://www.w3.org/2000/svg">
<path d="M5.33341 4L2.66675 6.66667V26.6667C2.66675 27.4667 3.20008 28 4.00008 28H6.66675C7.46675 28 8.00008 27.4667 8.00008 26.6667V6.66667L5.33341 4Z" stroke="#13295F" stroke-width="2" stroke-linecap="round" stroke-linejoin="round"/>
<path d="M8 10.6665H13.3333" stroke="#13295F" stroke-width="2" stroke-linecap="round" stroke-linejoin="round"/>
<path d="M8 24H13.3333" stroke="#13295F" stroke-width="2" stroke-linecap="round" stroke-linejoin="round"/>
<path d="M15.9999 4L13.3333 6.66667V26.6667C13.3333 27.4667 13.8666 28 14.6666 28H17.3333C18.1333 28 18.6666 27.4667 18.6666 26.6667V6.66667L15.9999 4Z" stroke="#13295F" stroke-width="2" stroke-linecap="round" stroke-linejoin="round"/>
<path d="M18.6667 10.6665H24.0001" stroke="#13295F" stroke-width="2" stroke-linecap="round" stroke-linejoin="round"/>
<path d="M18.6667 24H24.0001" stroke="#13295F" stroke-width="2" stroke-linecap="round" stroke-linejoin="round"/>
<path d="M26.6667 4L24 6.66667V26.6667C24 27.4667 24.5333 28 25.3333 28H28C28.8 28 29.3333 27.4667 29.3333 26.6667V6.66667L26.6667 4Z" stroke="#13295F" stroke-width="2" stroke-linecap="round" stroke-linejoin="round"/>
</svg>
