<svg width="45" height="45" viewBox="0 0 45 45" fill="none" xmlns="http://www.w3.org/2000/svg">
<path d="M39.375 30.0001V15.0001C39.3743 14.3424 39.2007 13.6966 38.8716 13.1272C38.5425 12.5579 38.0695 12.0851 37.5 11.7563L24.375 4.25631C23.8049 3.92718 23.1583 3.75391 22.5 3.75391C21.8417 3.75391 21.1951 3.92718 20.625 4.25631L7.5 11.7563C6.93049 12.0851 6.45746 12.5579 6.12837 13.1272C5.79927 13.6966 5.62567 14.3424 5.625 15.0001V30.0001C5.62567 30.6577 5.79927 31.3035 6.12837 31.8729C6.45746 32.4422 6.93049 32.915 7.5 33.2438L20.625 40.7438C21.1951 41.0729 21.8417 41.2462 22.5 41.2462C23.1583 41.2462 23.8049 41.0729 24.375 40.7438L37.5 33.2438C38.0695 32.915 38.5425 32.4422 38.8716 31.8729C39.2007 31.3035 39.3743 30.6577 39.375 30.0001Z" stroke="#F4712F" stroke-width="2" stroke-linecap="round" stroke-linejoin="round"/>
</svg>
