<svg width="45" height="45" viewBox="0 0 45 45" fill="none" xmlns="http://www.w3.org/2000/svg">
<path d="M37.5 24.3749C37.5 33.7499 30.9375 38.4374 23.1375 41.1561C22.7291 41.2945 22.2854 41.2879 21.8813 41.1374C14.0625 38.4374 7.5 33.7499 7.5 24.3749V11.2499C7.5 10.7526 7.69754 10.2757 8.04918 9.92404C8.40081 9.57241 8.87772 9.37487 9.375 9.37487C13.125 9.37487 17.8125 7.12487 21.075 4.27487C21.4722 3.93549 21.9775 3.74902 22.5 3.74902C23.0225 3.74902 23.5278 3.93549 23.925 4.27487C27.2063 7.14362 31.875 9.37487 35.625 9.37487C36.1223 9.37487 36.5992 9.57241 36.9508 9.92404C37.3025 10.2757 37.5 10.7526 37.5 11.2499V24.3749Z" stroke="#F4712F" stroke-width="3.75" stroke-linecap="round" stroke-linejoin="round"/>
<path d="M16.875 22.5L20.625 26.25L28.125 18.75" stroke="#F4712F" stroke-width="3.75" stroke-linecap="round" stroke-linejoin="round"/>
</svg>
