<svg width="32" height="32" viewBox="0 0 32 32" fill="none" xmlns="http://www.w3.org/2000/svg">
<path d="M5.30001 28.0002V24.0002H9.43334L6.03334 12.8669C5.43334 12.5335 4.9389 12.0446 4.55001 11.4002C4.16112 10.7557 3.96667 10.0669 3.96667 9.33353C3.96667 8.22242 4.35556 7.27797 5.13334 6.50019C5.91112 5.72242 6.85556 5.33353 7.96668 5.33353C8.83334 5.33353 9.60556 5.58353 10.2833 6.08353C10.9611 6.58353 11.4333 7.22242 11.7 8.00019H15.9667V6.66686C15.9667 6.28908 16.0945 5.97242 16.35 5.71686C16.6056 5.4613 16.9222 5.33353 17.3 5.33353C17.5 5.33353 17.6945 5.37797 17.8833 5.46686C18.0722 5.55575 18.2333 5.68908 18.3667 5.86686L20.6333 3.73353C20.8333 3.53353 21.0722 3.40575 21.35 3.35019C21.6278 3.29464 21.9 3.33353 22.1667 3.46686L27.3667 5.86686C27.6333 6.00019 27.8167 6.19464 27.9167 6.45019C28.0167 6.70575 28.0111 6.95575 27.9 7.20019C27.7667 7.46686 27.5722 7.63908 27.3167 7.71686C27.0611 7.79464 26.8111 7.77797 26.5667 7.66686L21.7667 5.46686L18.6333 8.40019V10.2669L21.7667 13.1335L26.5667 10.9335C26.8111 10.8224 27.0667 10.8113 27.3333 10.9002C27.6 10.9891 27.7889 11.1557 27.9 11.4002C28.0333 11.6669 28.0445 11.9224 27.9333 12.1669C27.8222 12.4113 27.6333 12.6002 27.3667 12.7335L22.1667 15.2002C21.9 15.3335 21.6278 15.3724 21.35 15.3169C21.0722 15.2613 20.8333 15.1335 20.6333 14.9335L18.3667 12.8002C18.2333 12.9335 18.0722 13.0557 17.8833 13.1669C17.6945 13.278 17.5 13.3335 17.3 13.3335C16.9222 13.3335 16.6056 13.2057 16.35 12.9502C16.0945 12.6946 15.9667 12.378 15.9667 12.0002V10.6669H11.7C11.6333 10.8446 11.5611 11.0113 11.4833 11.1669C11.4056 11.3224 11.3 11.4891 11.1667 11.6669L17.8333 24.0002H22.6333V28.0002H5.30001ZM8.91668 10.2835C9.17223 10.028 9.30001 9.7113 9.30001 9.33353C9.30001 8.95575 9.17223 8.63908 8.91668 8.38353C8.66112 8.12797 8.34445 8.00019 7.96668 8.00019C7.5889 8.00019 7.27223 8.12797 7.01667 8.38353C6.76112 8.63908 6.63334 8.95575 6.63334 9.33353C6.63334 9.7113 6.76112 10.028 7.01667 10.2835C7.27223 10.5391 7.5889 10.6669 7.96668 10.6669C8.34445 10.6669 8.66112 10.5391 8.91668 10.2835ZM12.1667 24.0002H14.7667L9.03334 13.3335H8.90001L12.1667 24.0002Z" fill="#13295F"/>
</svg>
