<svg width="32" height="32" viewBox="0 0 32 32" fill="none" xmlns="http://www.w3.org/2000/svg">
<path d="M17.1068 2.90649C16.7594 2.74802 16.382 2.66602 16.0001 2.66602C15.6183 2.66602 15.2409 2.74802 14.8934 2.90649L3.46678 8.10649C3.23018 8.21082 3.02902 8.38169 2.8878 8.5983C2.74658 8.81491 2.67139 9.06791 2.67139 9.32649C2.67139 9.58507 2.74658 9.83807 2.8878 10.0547C3.02902 10.2713 3.23018 10.4422 3.46678 10.5465L14.9068 15.7598C15.2542 15.9183 15.6316 16.0003 16.0134 16.0003C16.3953 16.0003 16.7727 15.9183 17.1201 15.7598L28.5601 10.5598C28.7967 10.4555 28.9979 10.2846 29.1391 10.068C29.2803 9.85141 29.3555 9.59841 29.3555 9.33982C29.3555 9.08124 29.2803 8.82824 29.1391 8.61163C28.9979 8.39502 28.7967 8.22415 28.5601 8.11983L17.1068 2.90649Z" stroke="#13295F" stroke-width="2" stroke-linecap="round" stroke-linejoin="round"/>
<path d="M2.66675 16C2.66612 16.255 2.73864 16.5049 2.87571 16.7199C3.01278 16.935 3.20865 17.1062 3.44009 17.2133L14.9068 22.4267C15.2524 22.5832 15.6274 22.6641 16.0068 22.6641C16.3861 22.6641 16.7611 22.5832 17.1068 22.4267L28.5468 17.2267C28.7828 17.1206 28.9828 16.9481 29.1225 16.7303C29.2622 16.5125 29.3355 16.2587 29.3334 16" stroke="#13295F" stroke-width="2" stroke-linecap="round" stroke-linejoin="round"/>
<path d="M2.66675 22.6665C2.66612 22.9215 2.73864 23.1714 2.87571 23.3864C3.01278 23.6015 3.20865 23.7727 3.44009 23.8798L14.9068 29.0932C15.2524 29.2497 15.6274 29.3306 16.0068 29.3306C16.3861 29.3306 16.7611 29.2497 17.1068 29.0932L28.5468 23.8932C28.7828 23.7871 28.9828 23.6146 29.1225 23.3968C29.2622 23.179 29.3355 22.9253 29.3334 22.6665" stroke="#13295F" stroke-width="2" stroke-linecap="round" stroke-linejoin="round"/>
</svg>
