<svg width="32" height="32" viewBox="0 0 32 32" fill="none" xmlns="http://www.w3.org/2000/svg">
<path d="M14.6666 26.6665H2.66663" stroke="#13295F" stroke-width="2" stroke-linecap="round" stroke-linejoin="round"/>
<path d="M14.6666 6.08277V27.6254C14.6667 27.828 14.7129 28.0278 14.8017 28.2098C14.8905 28.3918 15.0196 28.5512 15.1793 28.6759C15.3389 28.8006 15.5248 28.8872 15.7229 28.9293C15.921 28.9714 16.1261 28.9678 16.3226 28.9188L25.3333 26.6668V7.4161C25.3332 6.82145 25.1344 6.24388 24.7684 5.77521C24.4024 5.30653 23.8902 4.97364 23.3133 4.82943L17.98 3.4961C17.587 3.39787 17.1767 3.39046 16.7805 3.47444C16.3842 3.55842 16.0122 3.73158 15.6928 3.98078C15.3735 4.22999 15.1151 4.54867 14.9373 4.91265C14.7594 5.27663 14.6669 5.67767 14.6666 6.08277Z" stroke="#13295F" stroke-width="2" stroke-linecap="round" stroke-linejoin="round"/>
<path d="M14.6667 5.3335H10.6667C9.95942 5.3335 9.28115 5.61445 8.78105 6.11454C8.28095 6.61464 8 7.29292 8 8.00016V26.6668" stroke="#13295F" stroke-width="2" stroke-linecap="round" stroke-linejoin="round"/>
<path d="M18.6666 16H18.68" stroke="#13295F" stroke-width="2" stroke-linecap="round" stroke-linejoin="round"/>
<path d="M29.3334 26.6665H25.3334" stroke="#13295F" stroke-width="2" stroke-linecap="round" stroke-linejoin="round"/>
</svg>
