<svg width="24" height="24" viewBox="0 0 24 24" fill="none" xmlns="http://www.w3.org/2000/svg">
<path d="M18 22C17.1667 22 16.4583 21.7083 15.875 21.125C15.2917 20.5417 15 19.8333 15 19C15 18.9 15.025 18.6667 15.075 18.3L8.05 14.2C7.78333 14.45 7.475 14.6458 7.125 14.7875C6.775 14.9292 6.4 15 6 15C5.16667 15 4.45833 14.7083 3.875 14.125C3.29167 13.5417 3 12.8333 3 12C3 11.1667 3.29167 10.4583 3.875 9.875C4.45833 9.29167 5.16667 9 6 9C6.4 9 6.775 9.07083 7.125 9.2125C7.475 9.35417 7.78333 9.55 8.05 9.8L15.075 5.7C15.0417 5.58333 15.0208 5.47083 15.0125 5.3625C15.0042 5.25417 15 5.13333 15 5C15 4.16667 15.2917 3.45833 15.875 2.875C16.4583 2.29167 17.1667 2 18 2C18.8333 2 19.5417 2.29167 20.125 2.875C20.7083 3.45833 21 4.16667 21 5C21 5.83333 20.7083 6.54167 20.125 7.125C19.5417 7.70833 18.8333 8 18 8C17.6 8 17.225 7.92917 16.875 7.7875C16.525 7.64583 16.2167 7.45 15.95 7.2L8.925 11.3C8.95833 11.4167 8.97917 11.5292 8.9875 11.6375C8.99583 11.7458 9 11.8667 9 12C9 12.1333 8.99583 12.2542 8.9875 12.3625C8.97917 12.4708 8.95833 12.5833 8.925 12.7L15.95 16.8C16.2167 16.55 16.525 16.3542 16.875 16.2125C17.225 16.0708 17.6 16 18 16C18.8333 16 19.5417 16.2917 20.125 16.875C20.7083 17.4583 21 18.1667 21 19C21 19.8333 20.7083 20.5417 20.125 21.125C19.5417 21.7083 18.8333 22 18 22Z" fill="#1E3C83"/>
</svg>
