<svg width="32" height="32" viewBox="0 0 32 32" fill="none" xmlns="http://www.w3.org/2000/svg">
<path d="M16 17.3335V26.6668C16 27.3741 16.281 28.0524 16.781 28.5524C17.2811 29.0525 17.9594 29.3335 18.6667 29.3335C19.3739 29.3335 20.0522 29.0525 20.5523 28.5524C21.0524 28.0524 21.3333 27.3741 21.3333 26.6668" stroke="#13295F" stroke-width="2" stroke-linecap="round" stroke-linejoin="round"/>
<path d="M16 2.6665V5.33317" stroke="#13295F" stroke-width="2" stroke-linecap="round" stroke-linejoin="round"/>
<path d="M27.9893 17.3333C28.1965 17.335 28.4013 17.2884 28.5873 17.1972C28.7734 17.1059 28.9356 16.9726 29.0612 16.8077C29.1867 16.6428 29.2721 16.451 29.3105 16.2473C29.349 16.0437 29.3394 15.8339 29.2826 15.6346C28.5264 12.6865 26.8108 10.0737 24.4061 8.20796C22.0014 6.34223 19.0442 5.32959 16.0006 5.32959C12.957 5.32959 9.99991 6.34223 7.5952 8.20796C5.19049 10.0737 3.47486 12.6865 2.71863 15.6346C2.66213 15.8329 2.6524 16.0417 2.6902 16.2444C2.728 16.4471 2.8123 16.6383 2.93648 16.8029C3.06066 16.9675 3.22133 17.1011 3.40586 17.1931C3.59039 17.2852 3.79376 17.3331 3.99996 17.3333H27.9893Z" stroke="#13295F" stroke-width="2" stroke-linecap="round" stroke-linejoin="round"/>
</svg>
