<svg width="24" height="24" viewBox="0 0 24 24" fill="none" xmlns="http://www.w3.org/2000/svg">
<path d="M11.8944 18.8939C11.689 18.8232 11.5083 18.71 11.3525 18.5545L9.88625 17.2178C8.38458 15.8458 7.02813 14.4844 5.81687 13.1337C4.60563 11.7829 4 10.2942 4 8.66761C4 7.33805 4.44625 6.22772 5.33875 5.33663C6.23125 4.44554 7.34333 4 8.675 4C9.42583 4 10.1342 4.15912 10.8 4.47737C11.4658 4.79562 12.0325 5.23055 12.5 5.78218C12.9675 5.23055 13.5342 4.79562 14.2 4.47737C14.8658 4.15912 15.5742 4 16.325 4C17.6567 4 18.7688 4.44554 19.6613 5.33663C20.5538 6.22772 21 7.33805 21 8.66761C21 10.2942 20.3979 11.7864 19.1938 13.1443C17.9896 14.5021 16.6225 15.867 15.0925 17.239L13.6475 18.5545C13.4917 18.71 13.311 18.8232 13.1056 18.8939C12.9002 18.9646 12.6983 19 12.5 19C12.3017 19 12.0998 18.9646 11.8944 18.8939ZM11.6925 7.47949C11.2817 6.89958 10.8425 6.45757 10.375 6.15347C9.9075 5.84936 9.34083 5.69731 8.675 5.69731C7.825 5.69731 7.11667 5.9802 6.55 6.54597C5.98333 7.11174 5.7 7.81895 5.7 8.66761C5.7 9.40311 5.96208 10.1846 6.48625 11.012C7.01042 11.8395 7.63729 12.6421 8.36688 13.4201C9.09646 14.198 9.84729 14.9264 10.6194 15.6054C11.3915 16.2843 12.0183 16.843 12.5 17.2815C12.9817 16.843 13.6085 16.2843 14.3806 15.6054C15.1527 14.9264 15.9035 14.198 16.6331 13.4201C17.3627 12.6421 17.9896 11.8395 18.5138 11.012C19.0379 10.1846 19.3 9.40311 19.3 8.66761C19.3 7.81895 19.0167 7.11174 18.45 6.54597C17.8833 5.9802 17.175 5.69731 16.325 5.69731C15.6592 5.69731 15.0925 5.84936 14.625 6.15347C14.1575 6.45757 13.7183 6.89958 13.3075 7.47949Z" fill="#1E3C83"/>
</svg>
